<svg width="12" height="12" viewBox="0 0 12 12" fill="none" xmlns="http://www.w3.org/2000/svg">
<path fill-rule="evenodd" clip-rule="evenodd" d="M0.410704 0.410826C0.736141 0.0853888 1.26378 0.0853888 1.58921 0.410826L5.99996 4.82157L10.4107 0.410826C10.7361 0.0853888 11.2638 0.0853888 11.5892 0.410826C11.9147 0.736263 11.9147 1.2639 11.5892 1.58934L7.17847 6.00008L11.5892 10.4108C11.9147 10.7363 11.9147 11.2639 11.5892 11.5893C11.2638 11.9148 10.7361 11.9148 10.4107 11.5893L5.99996 7.17859L1.58921 11.5893C1.26378 11.9148 0.736141 11.9148 0.410704 11.5893C0.0852667 11.2639 0.0852667 10.7363 0.410704 10.4108L4.82145 6.00008L0.410704 1.58934C0.0852667 1.2639 0.0852667 0.736263 0.410704 0.410826Z" fill="white"/>
</svg>
