<svg width="20" height="20" viewBox="0 0 20 20" fill="none" xmlns="http://www.w3.org/2000/svg">
<path fill-rule="evenodd" clip-rule="evenodd" d="M12.5 15.625C12.5 15.9702 12.2202 16.25 11.875 16.25L1.875 16.25C1.52982 16.25 1.25 15.9702 1.25 15.625L1.25 4.375C1.25 4.02982 1.52982 3.75 1.875 3.75L11.875 3.75C12.2202 3.75 12.5 4.02982 12.5 4.375L12.5 6.875C12.5 7.22018 12.7798 7.5 13.125 7.5C13.4702 7.5 13.75 7.22018 13.75 6.875L13.75 4.375C13.75 3.33947 12.9105 2.5 11.875 2.5L1.875 2.5C0.839468 2.5 6.18977e-07 3.33947 5.73712e-07 4.375L8.19588e-08 15.625C3.66942e-08 16.6605 0.839466 17.5 1.875 17.5L11.875 17.5C12.9105 17.5 13.75 16.6605 13.75 15.625L13.75 13.125C13.75 12.7798 13.4702 12.5 13.125 12.5C12.7798 12.5 12.5 12.7798 12.5 13.125L12.5 15.625Z" fill="white"/>
<path fill-rule="evenodd" clip-rule="evenodd" d="M19.8169 10.4419C20.061 10.1979 20.061 9.80214 19.8169 9.55806L16.0669 5.80806C15.8229 5.56398 15.4271 5.56398 15.1831 5.80806C14.939 6.05214 14.939 6.44786 15.1831 6.69194L17.8661 9.375L6.875 9.375C6.52982 9.375 6.25 9.65482 6.25 10C6.25 10.3452 6.52982 10.625 6.875 10.625L17.8661 10.625L15.1831 13.3081C14.939 13.5521 14.939 13.9479 15.1831 14.1919C15.4271 14.436 15.8229 14.436 16.0669 14.1919L19.8169 10.4419Z" fill="white"/>
</svg>
